<svg width="456" height="456" viewBox="0 0 456 456" fill="none" xmlns="http://www.w3.org/2000/svg">
<g clip-path="url(#clip0_177_1597)">
<path d="M101.397 213.811H98.0531C96.567 217.401 95.7002 221.362 95.7002 225.448C95.7002 229.533 96.567 233.495 98.0531 237.085H101.397C99.6629 233.618 98.7961 229.657 98.7961 225.448C98.6722 221.362 99.6629 217.401 101.397 213.811Z" fill="white"/>
<path d="M132.107 216.781C131.364 216.286 130.621 215.791 129.755 215.543V224.457H121.953V215.419C121.086 215.667 120.343 216.162 119.6 216.657V224.457H114.894C114.894 224.828 114.771 225.199 114.771 225.571C114.771 225.942 114.771 226.314 114.894 226.685H119.724V234.484C120.467 234.979 121.21 235.351 122.077 235.722V226.685H129.878V235.598C130.745 235.227 131.488 234.856 132.231 234.36V226.685H136.689C136.689 226.314 136.813 225.942 136.813 225.571C136.813 225.199 136.813 224.828 136.689 224.457H132.107V216.781Z" fill="white"/>
<path d="M130.992 198.336C133.716 198.707 136.317 199.574 138.67 200.688V197.345C136.565 196.479 134.336 195.736 131.983 195.365C130.373 195.117 128.763 194.993 127.153 194.993C123.067 194.993 119.104 195.86 115.513 197.345V200.688C118.98 198.955 122.943 198.088 127.153 198.088C128.392 198.088 129.754 198.212 130.992 198.336Z" fill="white"/>
<path d="M127.154 209.352C127.649 206.381 128.269 203.533 129.135 200.686C128.021 200.562 126.906 200.438 125.668 200.438C121.829 200.438 118.114 201.305 114.894 202.914C109.693 205.39 105.607 209.599 103.13 214.675C101.52 218.018 100.653 221.608 100.653 225.569C100.653 229.407 101.52 233.121 103.13 236.34C104.616 239.559 106.845 242.406 109.569 244.758C111.179 246.12 113.037 247.358 114.894 248.225C118.114 249.71 121.581 250.577 125.297 250.701C125.42 250.701 125.544 250.701 125.668 250.701C125.792 250.701 125.916 250.701 126.163 250.701C127.154 250.701 128.145 250.577 129.135 250.453C128.392 247.606 127.649 244.758 127.154 241.787C135.451 241.044 142.014 234.112 142.014 225.569C142.014 217.027 135.451 210.095 127.154 209.352ZM139.166 225.446C139.166 225.817 139.166 226.188 139.166 226.56C138.795 231.14 136.07 235.102 132.231 237.207C131.488 237.578 130.745 237.949 129.878 238.197C128.64 238.568 127.278 238.816 125.792 238.816C124.554 238.816 123.315 238.568 122.077 238.321C121.21 238.073 120.467 237.826 119.724 237.454C115.761 235.473 112.913 231.388 112.418 226.684C112.418 226.312 112.418 225.941 112.418 225.569C112.418 225.198 112.418 224.827 112.418 224.455C112.789 219.751 115.637 215.789 119.724 213.685C120.467 213.313 121.21 212.942 122.077 212.818C123.315 212.447 124.554 212.323 125.792 212.323C127.154 212.323 128.516 212.571 129.878 212.942C130.745 213.19 131.488 213.561 132.231 213.932C136.07 216.037 138.795 219.998 139.166 224.579C139.166 224.703 139.166 225.074 139.166 225.446Z" fill="white"/>
<path d="M98.6875 250.173L107.513 246.643C114.573 254.51 125.079 254.795 129.449 253.955L132.223 261.267C116.892 263.688 103.478 254.879 98.6875 250.173Z" fill="white"/>
<path d="M152.912 213.811H149.568C151.302 217.277 152.169 221.238 152.169 225.448C152.169 229.657 151.178 233.495 149.568 237.085H152.912C154.398 233.495 155.265 229.657 155.265 225.448C155.141 221.362 154.398 217.401 152.912 213.811Z" fill="white"/>
</g>
<path d="M188.689 235.543C191.945 235.543 194.608 234.556 196.778 232.485C198.85 230.413 199.935 227.552 199.935 223.705V208.908H195.496V223.508C195.496 225.974 194.904 227.848 193.72 229.229C192.537 230.61 190.859 231.301 188.788 231.301C186.716 231.301 185.039 230.61 183.855 229.229C182.672 227.848 182.08 225.875 182.08 223.508V208.908H177.641V223.705C177.641 227.552 178.726 230.413 180.797 232.485C182.77 234.458 185.434 235.543 188.689 235.543Z" fill="white"/>
<path d="M226.274 208.807H220.75L214.93 217.784H214.732L208.813 208.807H203.289L211.773 221.73L202.697 235.245H208.222L214.732 225.281H214.93L221.44 235.245H226.965L217.889 221.73L226.274 208.807Z" fill="white"/>
<path d="M250.048 212.26C247.483 209.991 243.833 208.807 239.098 208.807H230.022V235.245H238.802C243.932 235.245 247.68 234.061 250.147 231.693C252.613 229.326 253.895 226.07 253.895 221.927C253.797 217.784 252.514 214.627 250.048 212.26ZM246.793 228.734C245.116 230.214 242.649 231.003 239.493 231.003H234.56V212.95H238.999C245.905 212.95 249.358 216.008 249.358 222.026C249.358 224.985 248.47 227.254 246.793 228.734Z" fill="white"/>
<path d="M262.873 208.807H258.434V235.245H262.873V208.807Z" fill="white"/>
<path d="M281.123 235.245L291.777 208.807H286.745L278.656 228.537L270.567 208.807H265.536L276.19 235.245H281.123Z" fill="white"/>
<path d="M313.38 231.003H298.879V223.999H311.506V220.053H298.879V213.049H312.887V208.807H294.341V235.245H313.38V231.003Z" fill="white"/>
<path d="M340.211 235.247L333.306 225.678C337.153 224.593 339.028 221.831 339.028 217.49C339.028 214.531 338.14 212.36 336.463 210.979C334.687 209.598 331.826 208.908 327.782 208.908H317.917V235.345H322.356V226.467H328.176L334.49 235.345H340.211V235.247ZM327.979 222.324H322.455V212.854H328.078C330.445 212.854 332.122 213.15 333.109 213.84C333.997 214.531 334.49 215.714 334.49 217.391C334.49 219.068 333.997 220.351 333.109 221.14C332.221 221.929 330.445 222.324 327.979 222.324Z" fill="white"/>
<path d="M362.606 227.75C362.606 225.481 361.915 223.706 360.534 222.522C359.153 221.338 357.081 220.45 354.418 219.76C351.754 219.069 349.979 218.477 349.091 217.886C348.302 217.294 347.808 216.504 347.808 215.419C347.808 214.334 348.203 213.545 349.091 213.052C349.88 212.559 350.965 212.263 352.248 212.263C353.53 212.263 354.813 212.46 356.194 212.953C357.575 213.446 358.561 213.94 359.35 214.729L361.718 211.375C360.534 210.388 359.054 209.599 357.377 209.007C355.7 208.415 354.023 208.218 352.346 208.218C349.683 208.218 347.513 208.909 345.737 210.191C343.961 211.473 343.073 213.348 343.073 215.814C343.073 218.28 343.863 220.056 345.441 221.24C346.23 221.831 347.118 222.423 348.104 222.719C349.091 223.015 350.571 223.508 352.544 224.002C354.517 224.495 355.799 224.988 356.687 225.58C357.476 226.172 357.871 226.961 357.871 227.948C357.871 228.934 357.476 229.822 356.588 230.414C355.7 231.006 354.615 231.302 353.136 231.302C350.275 231.302 347.513 230.118 344.849 227.849L342.087 231.203C345.244 234.064 348.992 235.445 353.037 235.445C355.898 235.445 358.167 234.754 359.844 233.275C361.718 231.992 362.606 230.118 362.606 227.75Z" fill="white"/>
<path d="M181.093 244.815H177.641V253.694H178.923V251.326H181.093C182.869 251.326 184.25 249.846 184.25 248.071C184.25 246.295 182.869 244.815 181.093 244.815ZM181.093 250.34H179.022V245.901H181.093C182.08 245.901 182.968 246.887 182.968 248.071C182.968 249.255 182.08 250.34 181.093 250.34Z" fill="white"/>
<path d="M193.72 247.972C193.72 246.197 192.339 244.815 190.563 244.815H188.393H187.11V245.901V250.044V251.129V253.694H188.393V251.129H190.464L192.24 253.694H193.72L191.845 250.833C192.931 250.438 193.72 249.353 193.72 247.972ZM190.563 250.044H188.393V245.901H190.563C191.55 245.901 192.437 246.788 192.437 247.972C192.339 249.255 191.55 250.044 190.563 250.044Z" fill="white"/>
<path d="M200.426 244.714C197.96 244.714 195.889 246.687 195.889 249.252C195.889 251.817 197.96 253.79 200.426 253.79C202.893 253.79 204.964 251.817 204.964 249.252C204.964 246.687 202.893 244.714 200.426 244.714ZM200.426 252.804C198.552 252.804 197.27 251.126 197.27 249.351C197.27 247.575 198.552 245.898 200.426 245.898C202.301 245.898 203.583 247.575 203.583 249.351C203.682 251.126 202.301 252.804 200.426 252.804Z" fill="white"/>
<path d="M210.983 244.815H207.53V253.694H210.983C213.351 253.694 215.225 251.721 215.225 249.255C215.323 246.887 213.351 244.815 210.983 244.815ZM213.055 251.721C212.463 252.313 211.772 252.707 210.983 252.707H208.813V245.901H210.983C211.772 245.901 212.561 246.197 213.055 246.887C213.646 247.479 213.942 248.367 213.942 249.255C213.942 250.241 213.646 251.03 213.055 251.721Z" fill="white"/>
<path d="M223.809 250.241C223.809 250.734 223.71 252.707 221.54 252.707C219.369 252.707 219.271 250.734 219.271 250.241V244.815H217.988V250.241C217.988 251.721 218.58 253.891 221.54 253.891C224.499 253.891 225.091 251.721 225.091 250.241V244.815H223.809V250.241V250.241Z" fill="white"/>
<path d="M232.192 245.799C233.179 245.799 234.066 246.194 234.658 246.983L235.546 246.095C234.757 245.208 233.573 244.714 232.291 244.714C229.825 244.714 227.753 246.687 227.753 249.252C227.753 251.817 229.726 253.79 232.291 253.79C233.573 253.79 234.757 253.297 235.546 252.409L234.658 251.521C234.165 252.31 233.08 252.606 232.192 252.606C230.219 252.606 229.035 250.831 229.035 249.154C228.937 247.477 230.318 245.799 232.192 245.799Z" fill="white"/>
<path d="M237.322 245.901H240.084V253.694H241.465V245.901H244.129V244.815H237.322V245.901Z" fill="white"/>
<path d="M254.487 244.815H251.034V253.694H254.487C256.854 253.694 258.729 251.721 258.729 249.255C258.729 246.887 256.854 244.815 254.487 244.815ZM256.558 251.721C255.967 252.313 255.276 252.707 254.487 252.707H252.317V245.901H254.487C255.276 245.901 256.065 246.197 256.558 246.887C257.15 247.479 257.446 248.367 257.446 249.255C257.446 250.241 257.15 251.03 256.558 251.721Z" fill="white"/>
<path d="M263.07 249.649H266.818V248.564H263.07V245.901H267.607V244.815H261.688V253.694H267.903V252.609H263.07V249.649Z" fill="white"/>
<path d="M273.822 248.66C272.835 248.364 272.243 248.266 271.948 247.575C271.849 247.279 271.849 246.885 272.046 246.589C272.441 245.799 273.526 245.799 273.526 245.799C274.512 245.799 275.499 246.391 275.992 247.082L276.88 246.194C276.091 245.306 274.907 244.714 273.625 244.714C273.427 244.714 271.652 244.714 270.961 246.095C270.665 246.687 270.566 247.378 270.862 247.97C271.257 249.154 272.539 249.449 273.625 249.745C274.611 250.041 275.302 250.239 275.499 250.929C275.499 250.929 275.696 251.422 275.499 251.817C275.203 252.409 274.611 252.804 273.625 252.804C272.638 252.804 271.652 252.31 271.158 251.521L270.271 252.409C271.06 253.297 272.243 253.889 273.526 253.889C275.006 253.889 276.189 253.297 276.683 252.212C277.077 251.324 276.781 250.535 276.683 250.436C276.288 249.252 275.006 249.055 273.822 248.66Z" fill="white"/>
<path d="M281.221 244.815H279.938V253.694H281.221V244.815Z" fill="white"/>
<path d="M289.606 249.844H291.875C291.777 250.633 291.481 251.324 290.987 251.817C290.395 252.508 289.606 252.705 288.718 252.705C286.745 252.705 285.562 250.929 285.562 249.252C285.562 247.279 286.844 245.799 288.718 245.799C289.804 245.799 290.494 246.194 291.185 246.983L292.072 246.095C291.283 245.208 290.1 244.714 288.817 244.714C286.351 244.714 284.279 246.687 284.279 249.252C284.279 251.817 286.351 253.79 288.817 253.79C290.1 253.79 291.185 253.395 291.974 252.508V253.691H293.256V248.759H289.606V249.844Z" fill="white"/>
<path d="M302.824 251.918L297.99 244.815H296.412V253.694H297.793V246.69L302.528 253.694H304.107V244.815H302.824V251.918Z" fill="white"/>
<path d="M315.353 248.66C314.367 248.364 313.775 248.266 313.479 247.575C313.38 247.279 313.38 246.885 313.577 246.589C313.972 245.799 315.057 245.799 315.057 245.799C316.044 245.799 317.03 246.391 317.523 247.082L318.411 246.194C317.622 245.306 316.438 244.714 315.156 244.714C314.959 244.714 313.183 244.714 312.492 246.095C312.196 246.687 312.098 247.378 312.394 247.97C312.788 249.154 314.071 249.449 315.156 249.745C316.142 250.041 316.833 250.239 317.03 250.929C317.03 250.929 317.227 251.422 317.03 251.817C316.734 252.409 316.142 252.804 315.156 252.804C314.169 252.804 313.183 252.31 312.69 251.521L311.802 252.409C312.591 253.297 313.775 253.889 315.057 253.889C316.537 253.889 317.721 253.297 318.214 252.212C318.608 251.324 318.313 250.535 318.214 250.436C317.721 249.252 316.438 249.055 315.353 248.66Z" fill="white"/>
<path d="M320.286 245.901H323.048V253.694H324.429V245.901H327.191V244.815H320.286V245.901Z" fill="white"/>
<path d="M334.985 250.241C334.985 250.734 334.887 252.707 332.716 252.707C330.546 252.707 330.447 250.734 330.447 250.241V244.815H329.165V250.241C329.165 251.721 329.757 253.891 332.716 253.891C335.676 253.891 336.268 251.721 336.268 250.241V244.815H334.985V250.241Z" fill="white"/>
<path d="M342.581 244.815H339.128V253.694H342.581C344.948 253.694 346.822 251.721 346.822 249.255C346.822 246.887 344.948 244.815 342.581 244.815ZM340.41 245.901H342.581C343.37 245.901 344.159 246.197 344.652 246.887C345.244 247.479 345.54 248.367 345.54 249.255C345.54 250.142 345.244 251.03 344.652 251.622C344.06 252.214 343.37 252.609 342.581 252.609H340.41" fill="white"/>
<path d="M351.065 244.815H349.782V253.694H351.065V244.815Z" fill="white"/>
<path d="M358.463 244.714C355.996 244.714 353.925 246.687 353.925 249.252C353.925 251.817 355.996 253.79 358.463 253.79C360.929 253.79 363 251.817 363 249.252C363 246.687 361.027 244.714 358.463 244.714ZM358.463 252.804C356.588 252.804 355.306 251.126 355.306 249.351C355.306 247.575 356.588 245.898 358.463 245.898C360.337 245.898 361.619 247.575 361.619 249.351C361.718 251.126 360.436 252.804 358.463 252.804Z" fill="white"/>
<defs>
<clipPath id="clip0_177_1597">
<rect width="66.69" height="66.69" fill="white" transform="translate(93 194.999)"/>
</clipPath>
</defs>
</svg>
