<svg width="456" height="456" viewBox="0 0 456 456" fill="none" xmlns="http://www.w3.org/2000/svg">
<g clip-path="url(#clip0_182_1578)">
<path d="M14.1812 203.798H8.53429C6.02456 209.862 4.56055 216.552 4.56055 223.452C4.56055 230.352 6.02456 237.043 8.53429 243.106H14.1812C11.2532 237.252 9.78915 230.561 9.78915 223.452C9.58001 216.552 11.2532 209.862 14.1812 203.798Z" fill="white"/>
<path d="M66.0478 208.815C64.7929 207.978 63.538 207.142 62.074 206.724V221.778H48.8979V206.515C47.4339 206.933 46.1791 207.769 44.9242 208.605V221.778H36.9767C36.9767 222.405 36.7676 223.032 36.7676 223.659C36.7676 224.287 36.7676 224.914 36.9767 225.541H45.1333V238.713C46.3882 239.55 47.6431 240.177 49.1071 240.804V225.541H62.2832V240.595C63.7472 239.968 65.002 239.341 66.2569 238.504V225.541H73.7861C73.7861 224.914 73.9952 224.287 73.9952 223.659C73.9952 223.032 73.9952 222.405 73.7861 221.778H66.0478V208.815Z" fill="white"/>
<path d="M64.1645 177.663C68.7657 178.291 73.1577 179.754 77.1314 181.636V175.991C73.576 174.527 69.8114 173.273 65.8377 172.645C63.1188 172.227 60.3999 172.018 57.681 172.018C50.7793 172.018 44.0867 173.482 38.0215 175.991V181.636C43.8775 178.709 50.5701 177.245 57.681 177.245C59.7725 177.245 62.0731 177.454 64.1645 177.663Z" fill="white"/>
<path d="M57.6826 196.268C58.5192 191.25 59.5649 186.441 61.0289 181.632C59.1466 181.423 57.2643 181.214 55.1729 181.214C48.6894 181.214 42.4151 182.677 36.9774 185.396C28.1933 189.577 21.2915 196.686 17.1087 205.258C14.3898 210.904 12.9258 216.967 12.9258 223.658C12.9258 230.139 14.3898 236.412 17.1087 241.848C19.6184 247.284 23.383 252.093 27.9842 256.066C30.703 258.365 33.8402 260.456 36.9774 261.92C42.4151 264.429 48.2711 265.892 54.5455 266.102C54.7546 266.102 54.9638 266.102 55.1729 266.102C55.382 266.102 55.5912 266.102 56.0095 266.102C57.6826 266.102 59.3558 265.892 61.0289 265.683C59.7741 260.874 58.5192 256.066 57.6826 251.048C71.6953 249.793 82.7799 238.084 82.7799 223.658C82.7799 209.231 71.6953 197.522 57.6826 196.268ZM77.9696 223.449C77.9696 224.076 77.9696 224.703 77.9696 225.33C77.3422 233.066 72.741 239.757 66.2575 243.311C65.0027 243.939 63.7478 244.566 62.2838 244.984C60.1923 245.611 57.8918 246.03 55.382 246.03C53.2906 246.03 51.1992 245.611 49.1077 245.193C47.6437 244.775 46.3888 244.357 45.134 243.73C38.4414 240.384 33.631 233.485 32.7945 225.539C32.7945 224.912 32.7945 224.285 32.7945 223.658C32.7945 223.03 32.7945 222.403 32.7945 221.776C33.4219 213.831 38.2322 207.14 45.134 203.586C46.3888 202.958 47.6437 202.331 49.1077 202.122C51.1992 201.495 53.2906 201.286 55.382 201.286C57.6826 201.286 59.9832 201.704 62.2838 202.331C63.7478 202.749 65.0027 203.377 66.2575 204.004C72.741 207.558 77.3422 214.249 77.9696 221.985C77.9696 222.194 77.9696 222.821 77.9696 223.449Z" fill="white"/>
<path d="M9.60547 265.21L24.5101 259.248C36.4339 272.534 54.1775 273.017 61.5589 271.598L66.2432 283.947C40.3517 288.035 17.6966 273.159 9.60547 265.21Z" fill="white"/>
<path d="M101.185 203.798H95.5381C98.4661 209.653 99.9301 216.343 99.9301 223.452C99.9301 230.561 98.257 237.043 95.5381 243.106H101.185C103.695 237.043 105.159 230.561 105.159 223.452C104.95 216.552 103.695 209.862 101.185 203.798Z" fill="white"/>
</g>
<path d="M161.608 240.502C167.106 240.502 171.604 238.836 175.27 235.337C178.768 231.838 180.601 227.007 180.601 220.509V195.518H173.104V220.176C173.104 224.341 172.104 227.506 170.105 229.839C168.106 232.171 165.273 233.338 161.775 233.338C158.276 233.338 155.444 232.171 153.444 229.839C151.445 227.506 150.446 224.174 150.446 220.176V195.518H142.948V220.509C142.948 227.007 144.781 231.838 148.28 235.337C151.612 238.669 156.11 240.502 161.608 240.502Z" fill="white"/>
<path d="M225.085 195.347H215.755L205.926 210.508H205.593L195.596 195.347H186.266L200.594 217.173L185.267 239.998H194.597L205.593 223.17H205.926L216.922 239.998H226.252L210.924 217.173L225.085 195.347Z" fill="white"/>
<path d="M265.237 201.178C260.905 197.346 254.741 195.347 246.744 195.347H231.416V239.998H246.244C254.907 239.998 261.238 237.998 265.404 234C269.569 230.001 271.735 224.503 271.735 217.506C271.568 210.508 269.402 205.177 265.237 201.178ZM259.739 229.002C256.907 231.501 252.742 232.833 247.41 232.833H239.08V202.345H246.577C258.24 202.345 264.071 207.509 264.071 217.672C264.071 222.671 262.571 226.502 259.739 229.002Z" fill="white"/>
<path d="M286.897 195.347H279.399V239.998H286.897V195.347Z" fill="white"/>
<path d="M317.718 239.998L335.712 195.347H327.215L313.553 228.668L299.891 195.347H291.395L309.388 239.998H317.718Z" fill="white"/>
<path d="M372.197 232.833H347.706V221.004H369.031V214.34H347.706V202.511H371.364V195.347H340.042V239.998H372.197V232.833Z" fill="white"/>
<path d="M417.512 240.002L405.85 223.841C412.348 222.008 415.513 217.343 415.513 210.013C415.513 205.015 414.014 201.349 411.181 199.017C408.182 196.684 403.351 195.518 396.52 195.518H379.859V240.168H387.357V225.174H397.186L407.849 240.168H417.512V240.002ZM396.853 218.176H387.523V202.182H397.02C401.018 202.182 403.851 202.682 405.517 203.848C407.016 205.015 407.849 207.014 407.849 209.846C407.849 212.678 407.016 214.844 405.517 216.177C404.017 217.51 401.018 218.176 396.853 218.176Z" fill="white"/>
<path d="M455.334 227.341C455.334 223.51 454.167 220.511 451.835 218.511C449.503 216.512 446.004 215.013 441.505 213.846C437.007 212.68 434.008 211.681 432.509 210.681C431.176 209.681 430.343 208.348 430.343 206.516C430.343 204.683 431.009 203.35 432.509 202.517C433.842 201.684 435.674 201.184 437.84 201.184C440.006 201.184 442.172 201.518 444.504 202.351C446.837 203.184 448.503 204.017 449.836 205.349L453.834 199.685C451.835 198.019 449.336 196.686 446.504 195.686C443.671 194.687 440.839 194.354 438.007 194.354C433.508 194.354 429.843 195.52 426.844 197.686C423.845 199.852 422.346 203.017 422.346 207.182C422.346 211.347 423.679 214.346 426.344 216.345C427.677 217.345 429.177 218.345 430.843 218.845C432.509 219.344 435.008 220.177 438.34 221.01C441.672 221.843 443.838 222.676 445.337 223.676C446.67 224.676 447.337 226.009 447.337 227.675C447.337 229.341 446.67 230.84 445.171 231.84C443.671 232.839 441.839 233.339 439.34 233.339C434.508 233.339 429.843 231.34 425.345 227.508L420.68 233.173C426.011 238.004 432.342 240.337 439.173 240.337C444.005 240.337 447.836 239.17 450.669 236.671C453.834 234.506 455.334 231.34 455.334 227.341Z" fill="white"/>
<path d="M148.779 256.162H142.948V271.157H145.114V267.158H148.779C151.778 267.158 154.111 264.659 154.111 261.66C154.111 258.661 151.778 256.162 148.779 256.162ZM148.779 265.492H145.281V257.995H148.779C150.445 257.995 151.945 259.661 151.945 261.66C151.945 263.659 150.445 265.492 148.779 265.492Z" fill="white"/>
<path d="M170.105 261.494C170.105 258.495 167.772 256.162 164.774 256.162H161.108H158.942V257.995V264.992V266.825V271.157H161.108V266.825H164.607L167.606 271.157H170.105L166.939 266.325C168.772 265.659 170.105 263.826 170.105 261.494ZM164.774 264.992H161.108V257.995H164.774C166.44 257.995 167.939 259.494 167.939 261.494C167.773 263.659 166.44 264.992 164.774 264.992Z" fill="white"/>
<path d="M181.431 255.992C177.266 255.992 173.768 259.324 173.768 263.656C173.768 267.987 177.266 271.319 181.431 271.319C185.597 271.319 189.095 267.987 189.095 263.656C189.095 259.324 185.597 255.992 181.431 255.992ZM181.431 269.653C178.266 269.653 176.1 266.821 176.1 263.822C176.1 260.823 178.266 257.991 181.431 257.991C184.597 257.991 186.763 260.823 186.763 263.822C186.929 266.821 184.597 269.653 181.431 269.653Z" fill="white"/>
<path d="M199.26 256.162H193.429V271.157H199.26C203.258 271.157 206.424 267.825 206.424 263.659C206.591 259.661 203.258 256.162 199.26 256.162ZM202.759 267.825C201.759 268.824 200.593 269.491 199.26 269.491H195.595V257.995H199.26C200.593 257.995 201.926 258.495 202.759 259.661C203.758 260.66 204.258 262.16 204.258 263.659C204.258 265.325 203.758 266.658 202.759 267.825Z" fill="white"/>
<path d="M220.922 265.325C220.922 266.158 220.755 269.491 217.09 269.491C213.424 269.491 213.258 266.158 213.258 265.325V256.162H211.092V265.325C211.092 267.825 212.091 271.49 217.09 271.49C222.088 271.49 223.087 267.825 223.087 265.325V256.162H220.922V265.325V265.325Z" fill="white"/>
<path d="M235.08 257.824C236.746 257.824 238.246 258.491 239.245 259.824L240.745 258.324C239.412 256.825 237.413 255.992 235.247 255.992C231.082 255.992 227.583 259.324 227.583 263.656C227.583 267.987 230.915 271.319 235.247 271.319C237.413 271.319 239.412 270.486 240.745 268.987L239.245 267.487C238.412 268.82 236.58 269.32 235.08 269.32C231.748 269.32 229.749 266.321 229.749 263.489C229.582 260.657 231.915 257.824 235.08 257.824Z" fill="white"/>
<path d="M243.744 257.995H248.409V271.157H250.742V257.995H255.24V256.162H243.744V257.995Z" fill="white"/>
<path d="M272.734 256.162H266.902V271.157H272.734C276.732 271.157 279.898 267.825 279.898 263.659C279.898 259.661 276.732 256.162 272.734 256.162ZM276.232 267.825C275.233 268.824 274.066 269.491 272.734 269.491H269.068V257.995H272.734C274.066 257.995 275.399 258.495 276.232 259.661C277.232 260.66 277.732 262.16 277.732 263.659C277.732 265.325 277.232 266.658 276.232 267.825Z" fill="white"/>
<path d="M287.229 264.326H293.56V262.493H287.229V257.995H294.893V256.162H284.896V271.157H295.393V269.324H287.229V264.326Z" fill="white"/>
<path d="M305.388 262.656C303.722 262.156 302.723 261.989 302.223 260.823C302.056 260.323 302.056 259.657 302.39 259.157C303.056 257.824 304.889 257.824 304.889 257.824C306.555 257.824 308.221 258.824 309.054 259.99L310.553 258.491C309.22 256.991 307.221 255.992 305.055 255.992C304.722 255.992 301.723 255.992 300.557 258.324C300.057 259.324 299.89 260.49 300.39 261.49C301.057 263.489 303.223 263.989 305.055 264.489C306.721 264.988 307.888 265.322 308.221 266.488C308.221 266.488 308.554 267.321 308.221 267.987C307.721 268.987 306.721 269.653 305.055 269.653C303.389 269.653 301.723 268.82 300.89 267.487L299.391 268.987C300.723 270.486 302.723 271.486 304.889 271.486C307.388 271.486 309.387 270.486 310.22 268.654C310.886 267.154 310.387 265.821 310.22 265.655C309.554 263.656 307.388 263.322 305.388 262.656Z" fill="white"/>
<path d="M317.885 256.162H315.719V271.157H317.885V256.162Z" fill="white"/>
<path d="M332.047 264.655H335.878C335.712 265.988 335.212 267.154 334.379 267.987C333.379 269.154 332.047 269.487 330.547 269.487C327.215 269.487 325.216 266.488 325.216 263.656C325.216 260.323 327.382 257.824 330.547 257.824C332.38 257.824 333.546 258.491 334.712 259.824L336.212 258.324C334.879 256.825 332.88 255.992 330.714 255.992C326.549 255.992 323.05 259.324 323.05 263.656C323.05 267.987 326.549 271.319 330.714 271.319C332.88 271.319 334.712 270.653 336.045 269.154V271.153H338.211V262.823H332.047V264.655Z" fill="white"/>
<path d="M354.369 268.158L346.206 256.162H343.54V271.157H345.873V259.328L353.87 271.157H356.535V256.162H354.369V268.158Z" fill="white"/>
<path d="M375.53 262.656C373.864 262.156 372.864 261.989 372.365 260.823C372.198 260.323 372.198 259.657 372.531 259.157C373.198 257.824 375.03 257.824 375.03 257.824C376.696 257.824 378.362 258.824 379.195 259.99L380.695 258.491C379.362 256.991 377.363 255.992 375.197 255.992C374.864 255.992 371.865 255.992 370.698 258.324C370.199 259.324 370.032 260.49 370.532 261.49C371.198 263.489 373.364 263.989 375.197 264.489C376.863 264.988 378.029 265.322 378.362 266.488C378.362 266.488 378.696 267.321 378.362 267.987C377.863 268.987 376.863 269.653 375.197 269.653C373.531 269.653 371.865 268.82 371.032 267.487L369.532 268.987C370.865 270.486 372.864 271.486 375.03 271.486C377.529 271.486 379.529 270.486 380.362 268.654C381.028 267.154 380.528 265.821 380.362 265.655C379.529 263.656 377.363 263.322 375.53 262.656Z" fill="white"/>
<path d="M383.861 257.995H388.526V271.157H390.859V257.995H395.524V256.162H383.861V257.995Z" fill="white"/>
<path d="M408.686 265.325C408.686 266.158 408.52 269.491 404.854 269.491C401.189 269.491 401.022 266.158 401.022 265.325V256.162H398.856V265.325C398.856 267.825 399.856 271.49 404.854 271.49C409.852 271.49 410.852 267.825 410.852 265.325V256.162H408.686V265.325Z" fill="white"/>
<path d="M421.514 256.162H415.683V271.157H421.514C425.512 271.157 428.678 267.825 428.678 263.659C428.678 259.661 425.512 256.162 421.514 256.162ZM417.848 257.995H421.514C422.847 257.995 424.18 258.495 425.013 259.661C426.012 260.66 426.512 262.16 426.512 263.659C426.512 265.159 426.012 266.658 425.013 267.658C424.013 268.658 422.847 269.324 421.514 269.324H417.848" fill="white"/>
<path d="M435.843 256.162H433.677V271.157H435.843V256.162Z" fill="white"/>
<path d="M448.337 255.992C444.172 255.992 440.673 259.324 440.673 263.656C440.673 267.987 444.172 271.319 448.337 271.319C452.502 271.319 456.001 267.987 456.001 263.656C456.001 259.324 452.668 255.992 448.337 255.992ZM448.337 269.653C445.171 269.653 443.005 266.821 443.005 263.822C443.005 260.823 445.171 257.991 448.337 257.991C451.502 257.991 453.668 260.823 453.668 263.822C453.835 266.821 451.669 269.653 448.337 269.653Z" fill="white"/>
<defs>
<clipPath id="clip0_182_1578">
<rect width="112.632" height="112.632" fill="white" transform="translate(0 172.027)"/>
</clipPath>
</defs>
</svg>
