<svg width="24" height="24" viewBox="0 0 24 24" fill="none" xmlns="http://www.w3.org/2000/svg">
<path fill-rule="evenodd" clip-rule="evenodd" d="M0 4.98739C0 2.23293 2.42498 0 5.41599 0H18.584C21.5752 0 24 2.23362 24 4.98739V19.0126C24 21.7671 21.575 24 18.584 24H5.41599C2.42482 24 0 21.7664 0 19.0126V4.98739Z" fill="white"/>
<path d="M6.79883 7.60007C6.79883 6.27459 7.87334 5.20007 9.19883 5.20007V18.8001C7.87334 18.8001 6.79883 17.7256 6.79883 16.4001V7.60007Z" fill="#5E39CE"/>
<path d="M14.7998 5.20007C16.1253 5.20007 17.1998 6.27459 17.1998 7.60007V9.20007H14.7998V5.20007Z" fill="#5E39CE"/>
<path d="M14.7998 11.2001H17.1998V16.4001C17.1998 17.7256 16.1253 18.8001 14.7998 18.8001V11.2001Z" fill="#5E39CE"/>
<path d="M17.2012 16.4001C17.2012 17.7256 16.1267 18.8001 14.8012 18.8001L9.20117 18.8001C7.87569 18.8001 6.80117 17.7256 6.80117 16.4001L17.2012 16.4001Z" fill="#5E39CE"/>
<rect x="17.2012" y="11.2001" width="2.4" height="4.8" transform="rotate(90 17.2012 11.2001)" fill="#5E39CE"/>
<path d="M6.79883 7.59985C6.79883 6.27437 7.87335 5.19985 9.19883 5.19985L14.7988 5.19985C16.1243 5.19985 17.1988 6.27437 17.1988 7.59985L6.79883 7.59985Z" fill="#5E39CE"/>
</svg>
