<svg width="54" height="54" viewBox="0 0 54 54" fill="none" xmlns="http://www.w3.org/2000/svg">
<path fill-rule="evenodd" clip-rule="evenodd" d="M0 11.2216C0 5.02409 5.4562 0 12.186 0H41.814C48.5441 0 54 5.02565 54 11.2216V42.7784C54 48.9759 48.5438 54 41.814 54H12.186C5.45585 54 0 48.9744 0 42.7784V11.2216Z" fill="#5E39CE"/>
<path d="M15.2983 17.0997C15.2983 14.1174 17.716 11.6997 20.6983 11.6997V42.2997C17.716 42.2997 15.2983 39.882 15.2983 36.8997V17.0997Z" fill="white"/>
<path d="M33.2998 11.6997C36.2821 11.6997 38.6998 14.1174 38.6998 17.0997V20.6997H33.2998V11.6997Z" fill="white"/>
<path d="M33.2998 25.1997H38.6998V36.8997C38.6998 39.882 36.2821 42.2997 33.2998 42.2997V25.1997Z" fill="white"/>
<path d="M38.7017 36.9004C38.7017 39.8827 36.284 42.3004 33.3017 42.3004L20.7017 42.3004C17.7193 42.3004 15.3017 39.8827 15.3017 36.9004L38.7017 36.9004Z" fill="white"/>
<rect x="38.7017" y="25.1997" width="5.4" height="10.8" transform="rotate(90 38.7017 25.1997)" fill="white"/>
<path d="M15.2983 17.0996C15.2983 14.1173 17.716 11.6996 20.6983 11.6996L33.2983 11.6996C36.2807 11.6996 38.6983 14.1173 38.6983 17.0996L15.2983 17.0996Z" fill="white"/>
</svg>
