<svg width="24" height="24" viewBox="0 0 24 24" fill="none" xmlns="http://www.w3.org/2000/svg">
<path d="M5.69141 18.4745C6.49858 19.3219 7.47602 19.9576 8.53809 20.4237C8.70799 20.4661 8.83595 20.5503 9.00586 20.5927C9.72796 20.8468 10.4503 21.0171 11.2148 21.0594C11.3421 21.1017 11.4694 21.1014 11.5967 21.1014H12.3193C12.4466 21.0592 12.5318 21.0594 12.6592 21.0594C12.8715 21.0594 13.1265 21.0168 13.3389 20.9745C13.5592 21.6023 13.8024 22.2304 14.0693 22.8583C13.4124 22.9718 12.7372 23.035 12.0479 23.035C8.62111 23.0349 5.5376 21.5718 3.38281 19.2382C4.08931 18.8596 4.8777 18.6044 5.69141 18.4745ZM12.0635 2.75574C12.4882 2.75574 12.8717 2.79834 13.2539 2.8407C12.9566 3.8151 12.7441 4.78975 12.5742 5.80652C15.4202 6.06095 17.6717 8.43318 17.6719 11.3563C17.6718 14.2796 15.4203 16.6527 12.5742 16.9071C12.7442 17.9239 12.999 18.8985 13.2539 19.8729C12.9141 19.9153 12.5732 19.9579 12.2334 19.9579H11.9365C10.6622 19.9155 9.47258 19.6186 8.36816 19.1102C7.73099 18.8137 7.09323 18.3897 6.54102 17.9237C5.60655 17.1188 4.84177 16.1443 4.33203 15.0428C3.77978 13.9413 3.48244 12.6697 3.48242 11.3563C3.48247 10.0007 3.77986 8.77162 4.33203 7.62781C5.18166 5.8909 6.58412 4.45075 8.36816 3.60339C9.47248 3.05273 10.7468 2.75586 12.0635 2.75574ZM12.1064 6.82312C11.6817 6.82314 11.2568 6.86597 10.832 6.99304C10.5348 7.03546 10.2792 7.16188 10.0244 7.28894C8.62272 8.00927 7.64599 9.36561 7.51855 10.9755V11.7382C7.68853 13.3478 8.66538 14.7457 10.0244 15.4237C10.2792 15.5508 10.5348 15.6359 10.832 15.7206C11.2567 15.8053 11.6817 15.8905 12.1064 15.8905C12.6161 15.8905 13.084 15.8056 13.5088 15.6786C13.8058 15.5939 14.0608 15.4667 14.3154 15.3397C15.6324 14.6195 16.5668 13.2628 16.6943 11.6952V11.0175C16.5668 9.44992 15.6323 8.09413 14.3154 7.3739C14.0608 7.2469 13.8059 7.11974 13.5088 7.03503C13.0416 6.90797 12.5737 6.82312 12.1064 6.82312ZM3.7373 7.33191C3.14267 8.5605 2.80323 9.91631 2.8457 11.3143C2.84572 12.7547 3.14264 14.1105 3.7373 15.2968H2.59082C2.08105 14.0681 1.78322 12.7125 1.7832 11.3143C1.7832 9.91624 2.08108 8.56055 2.59082 7.33191H3.7373ZM21.4102 7.33191C21.9199 8.56055 22.1753 9.91624 22.2178 11.3143C22.2178 12.7548 21.9199 14.0681 21.4102 15.2968H20.2637C20.8159 14.0681 21.1553 12.7547 21.1553 11.3143C21.1553 9.87395 20.8583 8.51815 20.2637 7.33191H21.4102ZM10.7891 10.9755H13.4658V7.92468C13.763 8.00939 14.0177 8.17915 14.2725 8.34851V10.9755H15.8447C15.8871 11.1024 15.8867 11.2294 15.8867 11.3563C15.8867 11.4834 15.8447 11.6111 15.8447 11.7382H14.3154V14.3651C14.0606 14.5345 13.8051 14.6619 13.5078 14.7889V11.7382H10.832V14.8309C10.5347 14.7039 10.2792 14.5765 10.0244 14.4071V11.7382H8.36816C8.32569 11.6111 8.3252 11.4834 8.3252 11.3563C8.32528 11.2294 8.36813 11.1024 8.36816 10.9755H9.98242V8.30652C10.2371 8.13716 10.4919 7.96747 10.7891 7.88269V10.9755ZM12.5742 0.891479C13.1263 0.89149 13.6784 0.933744 14.2305 1.01843C15.0376 1.14554 15.8032 1.39958 16.5254 1.69617V2.8407C15.7182 2.45938 14.8252 2.16214 13.8906 2.03503C13.466 1.99268 12.9989 1.95106 12.5742 1.95105C11.1299 1.95105 9.77052 2.24761 8.58105 2.8407V1.69617C9.81293 1.18785 11.1725 0.891479 12.5742 0.891479Z" fill="white"/>
</svg>
