<svg width="19" height="20" viewBox="0 0 19 20" fill="none" xmlns="http://www.w3.org/2000/svg">
<path d="M4.40077 14.0367C4.23179 14.1811 3.99595 14.2181 3.79086 14.1325L2.71983 13.6832C2.50143 13.592 2.35871 13.3791 2.35742 13.1425V6.85775C2.35871 6.62111 2.50143 6.40819 2.71983 6.31708L3.79086 5.87512C3.99595 5.78946 4.23179 5.82649 4.40077 5.97088L4.6409 6.16976C4.54161 6.09838 4.4107 6.08866 4.30195 6.14458C4.19321 6.20051 4.12497 6.31265 4.12528 6.43494V13.5653C4.12497 13.6876 4.19321 13.7997 4.30195 13.8556C4.4107 13.9116 4.54161 13.9019 4.6409 13.8305L4.40077 14.0367Z" fill="#52218A"/>
<path d="M2.71983 13.683C2.50143 13.5919 2.35871 13.379 2.35742 13.1423V13.0937C2.35891 13.2329 2.44498 13.3571 2.57475 13.4074C2.70452 13.4577 2.85184 13.4239 2.94671 13.3221L12.0806 3.22319C12.3457 2.95945 12.748 2.89102 13.0854 3.05229L15.9994 4.45479C16.3057 4.60207 16.5004 4.91193 16.5003 5.2518V5.28569C16.5001 5.07003 16.3757 4.87377 16.1808 4.7815C15.9859 4.68924 15.7553 4.71747 15.5884 4.85404L4.6409 13.8303L4.40077 14.0366C4.23179 14.181 3.99595 14.218 3.79086 14.1323L2.71983 13.683Z" fill="#6C33AF"/>
<path d="M2.71983 6.3171C2.50143 6.40821 2.35871 6.62113 2.35742 6.85777V6.90639C2.35891 6.76722 2.44498 6.64299 2.57475 6.5927C2.70452 6.54241 2.85184 6.57621 2.94671 6.67804L12.0806 16.7769C12.3457 17.0407 12.748 17.1091 13.0854 16.9478L15.9994 15.5453C16.3057 15.398 16.5004 15.0882 16.5003 14.7483V14.7144C16.5001 14.9301 16.3757 15.1263 16.1808 15.2186C15.9859 15.3109 15.7553 15.2826 15.5884 15.1461L4.6409 6.16978L4.40077 5.96353C4.2303 5.82163 3.9946 5.78747 3.79086 5.87514L2.71983 6.3171Z" fill="#854CC7"/>
<path d="M13.0848 16.9477C12.7475 17.1089 12.3451 17.0405 12.0801 16.7768C12.2285 16.9241 12.451 16.9679 12.6442 16.8877C12.8374 16.8075 12.9635 16.6191 12.964 16.4099V3.59296C12.9647 3.38324 12.839 3.19373 12.6456 3.1128C12.4521 3.03186 12.2289 3.07543 12.0801 3.22319C12.3451 2.95945 12.7475 2.89102 13.0848 3.05229L15.9988 4.45332C16.3051 4.6006 16.4999 4.91046 16.4997 5.25033V14.7496C16.4999 15.0895 16.3051 15.3993 15.9988 15.5466L13.0848 16.9477Z" fill="#B179F1"/>
<path d="M12.5064 17.0128C12.7012 17.0572 12.9052 17.0344 13.0854 16.948L15.9994 15.5469C16.3057 15.3996 16.5004 15.0898 16.5003 14.7499V5.25063C16.5004 4.91076 16.3057 4.6009 15.9994 4.45362L13.0854 3.0526C12.8792 2.95348 12.6426 2.93817 12.4254 3.00987C12.2955 3.0534 12.1774 3.12653 12.0806 3.22349L7.38403 8.41804L4.6409 6.16992L4.40077 5.96367C4.25418 5.83833 4.05554 5.79266 3.86894 5.84139C3.84202 5.84734 3.81583 5.85623 3.79086 5.86791L2.71983 6.31724C2.51545 6.40163 2.37551 6.59333 2.35742 6.81371C2.35742 6.82844 2.35742 6.84318 2.35742 6.85791V13.1426C2.35742 13.1574 2.35742 13.1721 2.35742 13.1868C2.37551 13.4072 2.51545 13.5989 2.71983 13.6833L3.79086 14.1253C3.81583 14.137 3.84202 14.1458 3.86894 14.1518C4.05554 14.2005 4.25418 14.1548 4.40077 14.0295L4.6409 13.8306L7.38403 11.5825L12.0806 16.7771C12.1977 16.8939 12.3452 16.9756 12.5064 17.0128ZM12.9646 7.0067L9.31247 10.0003L12.9646 12.9938V7.0067ZM4.12528 7.97755L5.95354 10.0003L4.12528 12.023V7.97755Z" fill="url(#paint0_linear_82_2532)" fill-opacity="0.25"/>
<defs>
<linearGradient id="paint0_linear_82_2532" x1="9.42885" y1="2.96568" x2="9.42885" y2="17.0349" gradientUnits="userSpaceOnUse">
<stop stop-color="white"/>
<stop offset="1" stop-color="white" stop-opacity="0"/>
</linearGradient>
</defs>
</svg>
