<svg width="456" height="456" viewBox="0 0 456 456" fill="none" xmlns="http://www.w3.org/2000/svg">
<path d="M143.884 314.328C154.646 325.626 167.674 334.1 181.835 340.314C184.101 340.879 185.801 342.009 188.066 342.574C197.696 345.964 207.325 348.223 217.521 348.788C219.22 349.353 220.92 349.354 222.619 349.354H232.248C233.947 348.789 235.08 348.788 236.779 348.788C239.611 348.788 243.011 348.223 245.843 347.658C248.787 356.048 252.044 364.438 255.613 372.828C246.848 374.343 237.835 375.138 228.637 375.138C182.938 375.138 141.794 355.642 113.062 324.518C122.491 319.459 133.02 316.062 143.884 314.328ZM228.85 104.742C234.514 104.742 239.612 105.307 244.71 105.872C240.745 118.865 237.912 131.859 235.646 145.417C273.598 148.807 303.619 180.442 303.619 219.421C303.619 258.401 273.598 290.036 235.646 293.426C237.912 306.984 241.311 319.978 244.71 332.971C240.179 333.536 235.646 334.101 231.115 334.101H227.15C210.158 333.536 194.296 329.581 179.569 322.802C171.073 318.847 162.576 313.198 155.213 306.984C142.752 296.251 132.555 283.257 125.758 268.569C118.394 253.882 114.429 236.933 114.429 219.421C114.429 201.344 118.394 184.961 125.758 169.708C137.086 146.547 155.779 127.339 179.569 116.041C194.296 108.697 211.29 104.742 228.85 104.742ZM229.416 158.975C223.752 158.975 218.087 159.54 212.423 161.234C208.458 161.799 205.059 163.494 201.66 165.188C182.968 174.792 169.941 192.87 168.241 214.337V224.506C170.507 245.972 183.535 264.615 201.66 273.654C205.059 275.349 208.458 276.479 212.423 277.608C218.087 278.738 223.752 279.868 229.416 279.868C236.213 279.868 242.444 278.738 248.108 277.043C252.073 275.913 255.473 274.219 258.871 272.524C276.431 262.921 288.891 244.842 290.591 223.94V214.902C288.891 194 276.431 175.922 258.871 166.318C255.473 164.624 252.073 162.93 248.108 161.8C241.878 160.105 235.647 158.975 229.416 158.975ZM117.828 165.754C109.898 182.137 105.366 200.214 105.933 218.856C105.933 238.064 109.898 256.141 117.828 271.959H102.534C95.737 255.576 91.7715 237.499 91.7715 218.856C91.7715 200.214 95.737 182.137 102.534 165.754H117.828ZM353.466 165.754C360.263 182.137 363.661 200.214 364.228 218.856C364.228 238.064 360.263 255.576 353.466 271.959H338.172C345.536 255.576 350.067 238.064 350.067 218.856C350.067 199.649 346.102 181.572 338.172 165.754H353.466ZM211.855 214.337H247.541V173.663C251.506 174.793 254.905 177.052 258.304 179.312V214.337H279.262C279.828 216.032 279.828 217.727 279.828 219.422C279.828 221.116 279.262 222.811 279.262 224.506H258.87V259.531C255.472 261.791 252.072 263.485 248.107 265.18V224.506H212.422V265.745C208.457 264.05 205.058 262.355 201.659 260.096V224.506H179.568C179.002 222.811 179.002 221.116 179.002 219.422C179.002 217.727 179.568 216.032 179.568 214.337H201.093V178.747C204.491 176.488 207.891 174.228 211.855 173.098V214.337ZM235.646 79.8857C243.01 79.8858 250.374 80.4513 257.737 81.5811C268.499 83.2758 278.696 86.6648 288.325 90.6191V105.872C277.563 100.788 265.667 96.8334 253.206 95.1387C247.542 94.5738 241.311 94.0088 235.646 94.0088C216.388 94.0088 198.261 97.9633 182.401 105.872V90.6191C198.828 83.8402 216.954 79.8858 235.646 79.8857Z" fill="white"/>
</svg>
